<svg width="64" height="64" viewBox="0 0 64 64" fill="none" xmlns="http://www.w3.org/2000/svg">
  <defs>
    <linearGradient id="bv-shield" x1="0%" y1="0%" x2="100%" y2="100%">
      <stop offset="0%" stop-color="#C0C0C0" />
      <stop offset="50%" stop-color="#E8E8E8" />
      <stop offset="100%" stop-color="#808080" />
    </linearGradient>
    <linearGradient id="bv-arrow" x1="0%" y1="100%" x2="100%" y2="0%">
      <stop offset="0%" stop-color="#9CA3AF" />
      <stop offset="100%" stop-color="#F3F4F6" />
    </linearGradient>
  </defs>
  <path d="M32 4L56 16V38L32 60L8 38V16L32 4Z" stroke="url(#bv-shield)" stroke-width="2.5" fill="none" opacity="0.8"/>
  <path d="M18 18H28C31 18 33 20 33 23C33 25 31.5 26.5 30 27C32 27.5 34 29 34 32C34 35 31.5 37 28.5 37H18V18ZM23 25H27C28.5 25 29.5 24 29.5 23C29.5 21.5 28.5 21 27 21H23V25ZM23 34H28C29.5 34 30.5 33 30.5 31.5C30.5 30 29.5 29 28 29H23V34Z" fill="url(#bv-shield)"/>
  <path d="M30 40L38 28L44 32L52 16" stroke="url(#bv-arrow)" stroke-width="2.5" stroke-linecap="round" stroke-linejoin="round" fill="none"/>
  <path d="M48 14L54 15L51 20Z" fill="url(#bv-arrow)"/>
</svg>
